<?xml version="1.0" standalone="no"?>
<!DOCTYPE svg PUBLIC "-//W3C//DTD SVG 1.0//EN" "http://www.w3.org/TR/2001/REC-SVG-20010904/DTD/svg10.dtd">
<svg xmlns="http://www.w3.org/2000/svg" xmlns:xlink="http://www.w3.org/1999/xlink" id="body_1" width="420" height="420">

<g transform="matrix(0.8203125 0 0 0.99762475 0 0)">
	<g>
        <path d="M339.5 2.5C 364.608 -0.0463976 387.941 5.12027 409.5 18C 417 23.3409 424.333 28.8409 431.5 34.5C 454.153 29.5054 475.486 21.1721 495.5 9.5C 488.829 33.3976 474.829 52.231 453.5 66C 473.192 64.1049 492.025 58.9382 510 50.5C 496.653 71.8611 479.653 90.1944 459 105.5C 459.791 195.365 428.957 272.199 366.5 336C 302.557 394.875 226.891 421.208 139.5 415C 89.5399 411.236 43.5399 395.902 1.5 369C 57.8032 373.93 108.47 359.596 153.5 326C 106.174 321.659 74.1743 297.325 57.5 253C 64.2846 253.533 71.1179 254.033 78 254.5C 86.3227 254.356 94.4893 253.189 102.5 251C 65.8585 241.273 40.6918 218.773 27 183.5C 22.8267 171.792 21.3267 159.792 22.5 147.5C 36.6287 155.046 51.6287 159.213 67.5 160C 34.1511 135.785 19.3178 102.952 23 61.5C 24.5911 48.0605 28.5911 35.3938 35 23.5C 35.6891 22.6433 36.5224 21.9767 37.5 21.5C 93.0484 87.4423 164.048 123.442 250.5 129.5C 243.113 80.796 259.78 42.9627 300.5 16C 312.894 9.36996 325.894 4.86996 339.5 2.5z" stroke="none" fill="#1D9BF0" fill-rule="nonzero" fill-opacity="0.99215686" />
	</g>
</g>
</svg>